<svg xmlns="http://www.w3.org/2000/svg" width="20" height="20" viewBox="0 0 29 29" fill="none">
  <path fill-rule="evenodd" clip-rule="evenodd" d="M7.967 3.046C9.09271 2.95613 10.1614 2.51336 11.0208 1.78075C11.9914 0.954039 13.2247 0.5 14.4998 0.5C15.7748 0.5 17.0081 0.954039 17.9788 1.78075C18.8382 2.51336 19.9068 2.95613 21.0325 3.046C22.3038 3.1476 23.4973 3.69869 24.399 4.60047C25.3008 5.50225 25.8519 6.69575 25.9535 7.967C26.0428 9.09225 26.4855 10.1615 27.2188 11.0208C28.0455 11.9914 28.4995 13.2247 28.4995 14.4998C28.4995 15.7748 28.0455 17.0081 27.2188 17.9788C26.4861 18.8382 26.0434 19.9068 25.9535 21.0325C25.8519 22.3038 25.3008 23.4973 24.399 24.399C23.4973 25.3008 22.3038 25.8519 21.0325 25.9535C19.9068 26.0434 18.8382 26.4861 17.9788 27.2188C17.0081 28.0455 15.7748 28.4995 14.4998 28.4995C13.2247 28.4995 11.9914 28.0455 11.0208 27.2188C10.1614 26.4861 9.09271 26.0434 7.967 25.9535C6.69575 25.8519 5.50225 25.3008 4.60047 24.399C3.69869 23.4973 3.1476 22.3038 3.046 21.0325C2.95613 19.9068 2.51336 18.8382 1.78075 17.9788C0.954039 17.0081 0.5 15.7748 0.5 14.4998C0.5 13.2247 0.954039 11.9914 1.78075 11.0208C2.51336 10.1614 2.95613 9.09271 3.046 7.967C3.1476 6.69575 3.69869 5.50225 4.60047 4.60047C5.50225 3.69869 6.69575 3.1476 7.967 3.046ZM20.987 12.237C21.3058 11.907 21.4822 11.4649 21.4782 11.0061C21.4742 10.5472 21.2902 10.1083 20.9657 9.78382C20.6412 9.45936 20.2023 9.27531 19.7435 9.27132C19.2846 9.26734 18.8426 9.44373 18.5125 9.7625L12.7498 15.5253L10.487 13.2625C10.157 12.9437 9.7149 12.7673 9.25605 12.7713C8.79721 12.7753 8.35829 12.9594 8.03382 13.2838C7.70936 13.6083 7.52531 14.0472 7.52132 14.5061C7.51734 14.9649 7.69373 15.407 8.01251 15.737L11.5125 19.237C11.8407 19.5651 12.2857 19.7494 12.7498 19.7494C13.2138 19.7494 13.6588 19.5651 13.987 19.237L20.987 12.237Z" fill="#5BD747"/>
</svg>