<svg xmlns="http://www.w3.org/2000/svg" width="20" height="20" viewBox="0 0 35 35" fill="none">
  <path d="M33.9605 7.15086L18.2105 0.150944C17.9865 0.0514226 17.7442 0 17.4991 0C17.2541 0 17.0117 0.0514226 16.7878 0.150944L1.03775 7.15086C1.00275 7.1666 0.97825 7.19285 0.94325 7.2121C0.89425 7.2366 0.84175 7.25235 0.79625 7.2821C0.75775 7.30835 0.728 7.3416 0.69125 7.3696C0.56333 7.46467 0.45113 7.57923 0.35875 7.7091C0.32375 7.7581 0.287 7.80185 0.2555 7.85085C0.203414 7.94333 0.158934 8.0399 0.1225 8.13959C0.10675 8.18684 0.0822501 8.23059 0.0682501 8.27784C0.0242996 8.43154 0.00134146 8.59048 0 8.75033V26.2501C0 26.9431 0.406 27.5678 1.0395 27.8496L16.7895 34.8495C17.017 34.951 17.2585 35 17.5 35C17.7437 34.9938 17.9833 34.9365 18.2035 34.832L18.2105 34.8495L33.9605 27.8496C34.2701 27.7123 34.5331 27.4881 34.7176 27.2041C34.9022 26.9202 35.0003 26.5887 35 26.2501V8.75033C35.0003 8.41169 34.9022 8.08027 34.7176 7.79632C34.5331 7.51238 34.2701 7.28814 33.9605 7.15086ZM17.5 3.66665L28.9415 8.75033L17.5 13.834L15.211 12.8173L6.06025 8.75033L17.5 3.66665ZM19.25 30.5568V16.8877L31.5 11.4435V25.1144L19.25 30.5568Z" fill="#8D8D8D" fill-opacity="0.64"/>
</svg>