<svg xmlns="http://www.w3.org/2000/svg" width="14" height="18" viewBox="0 0 14 18" fill="none">
<path fill-rule="evenodd" clip-rule="evenodd" d="M0 1.12502C0 0.826642 0.105357 0.54049 0.292893 0.329509C0.48043 0.118528 0.734784 0 1 0H13C13.2652 0 13.5196 0.118528 13.7071 0.329509C13.8946 0.54049 14 0.826642 14 1.12502V4.50006C13.9999 4.79841 13.8946 5.08451 13.707 5.29545L9 10.5909V14.6252C8.99994 14.9235 8.89455 15.2096 8.707 15.4206L6.707 17.6706C6.56715 17.8279 6.38898 17.935 6.19503 17.9784C6.00108 18.0218 5.80005 17.9995 5.61735 17.9144C5.43465 17.8292 5.27848 17.6851 5.1686 17.5001C5.05871 17.3152 5.00004 17.0977 5 16.8752V10.5909L0.293 5.29545C0.105451 5.08451 5.66374e-05 4.79841 0 4.50006V1.12502Z" fill="white"/>
</svg>