<svg xmlns="http://www.w3.org/2000/svg" width="115" height="110" viewBox="0 0 115 110" fill="none">
<path d="M102.573 27.8947L59.448 9.56135C58.8348 9.3007 58.1712 9.16602 57.5002 9.16602C56.8292 9.16602 56.1656 9.3007 55.5524 9.56135L12.4274 27.8947C12.3316 27.9359 12.2645 28.0047 12.1686 28.0551C12.0345 28.1193 11.8907 28.1605 11.7661 28.2384C11.6607 28.3072 11.5793 28.3943 11.4786 28.4676C11.1284 28.7166 10.8212 29.0166 10.5682 29.3568C10.4724 29.4851 10.3718 29.5997 10.2855 29.728C10.1429 29.9702 10.0211 30.2232 9.92135 30.4843C9.87823 30.608 9.81115 30.7226 9.77281 30.8464C9.65247 31.2489 9.58961 31.6652 9.58594 32.0839V77.9172C9.58594 79.7322 10.6976 81.3684 12.4322 82.1063L55.5572 100.44C56.1801 100.706 56.8414 100.834 57.5026 100.834C58.1698 100.817 58.826 100.668 59.4289 100.394L59.448 100.44L102.573 82.1063C103.421 81.7468 104.141 81.1595 104.646 80.4158C105.151 79.6721 105.42 78.8041 105.419 77.9172V32.0839C105.42 31.1969 105.151 30.3289 104.646 29.5852C104.141 28.8415 103.421 28.2542 102.573 27.8947ZM57.5026 18.7693L88.8305 32.0839L57.5026 45.3984L51.2351 42.7355L26.1795 32.0839L57.5026 18.7693ZM62.2943 89.1968V53.3964L95.8359 39.1376V74.9426L62.2943 89.1968Z" fill="#8D8D8D" fill-opacity="0.44"/>
</svg>