<svg xmlns="http://www.w3.org/2000/svg" width="20" height="20" viewBox="0 0 26 29" fill="none">
  <path d="M22.875 6.83333L21.6106 24.5404C21.5582 25.2763 21.229 25.9649 20.6891 26.4677C20.1493 26.9705 19.439 27.25 18.7013 27.25H6.63208C5.89437 27.25 5.18406 26.9705 4.64421 26.4677C4.10436 25.9649 3.77509 25.2763 3.72271 24.5404L2.45833 6.83333M9.75 12.6667V21.4167M15.5833 12.6667V21.4167M17.0417 6.83333V2.45833C17.0417 2.07156 16.888 1.70063 16.6145 1.42714C16.341 1.15365 15.9701 1 15.5833 1H9.75C9.36323 1 8.99229 1.15365 8.7188 1.42714C8.44531 1.70063 8.29167 2.07156 8.29167 2.45833V6.83333M1 6.83333H24.3333" stroke="#726E6E" stroke-width="2" stroke-linecap="round" stroke-linejoin="round"/>
</svg>