<?xml version="1.0" encoding="UTF-8"?>
<!DOCTYPE svg PUBLIC "-//W3C//DTD SVG 1.1//EN" "http://www.w3.org/Graphics/SVG/1.1/DTD/svg11.dtd">
<!-- Creator: CorelDRAW 2020 (64-Bit) -->
<svg xmlns="http://www.w3.org/2000/svg" xml:space="preserve" width="13.1619mm" height="25.7771mm" version="1.1" style="shape-rendering:geometricPrecision; text-rendering:geometricPrecision; image-rendering:optimizeQuality; fill-rule:evenodd; clip-rule:evenodd"
viewBox="0 0 284.06 556.32"
 xmlns:xlink="http://www.w3.org/1999/xlink"
 xmlns:xodm="http://www.corel.com/coreldraw/odm/2003">
 <defs>
  <style type="text/css">
   <![CDATA[
    .str0 {stroke:#2B2A29;stroke-width:1.64;stroke-miterlimit:22.9256}
    .str2 {stroke:#1C486D;stroke-width:1.64;stroke-miterlimit:22.9256}
    .str1 {stroke:#FEBF56;stroke-width:1.64;stroke-miterlimit:22.9256}
    .fil4 {fill:#434242}
    .fil3 {fill:#ffffff}
    .fil2 {fill:#1C486D}
    .fil1 {fill:#FEBF56}
    .fil0 {fill:#ffffff;fill-rule:nonzero}
   ]]>
  </style>
 </defs>
 <g id="Capa_x0020_1">
  <metadata id="CorelCorpID_0Corel-Layer"/>
  <path class="fil0" d="M229.32 556.07l0 0.23 -4.04 0 -7.13 -9.64 -3.66 0 0 9.64 -3.51 0 0 -24.71 8.05 0c1.93,0 3.57,0.3 4.9,0.92 1.33,0.61 2.34,1.46 3.01,2.55 0.67,1.09 1.01,2.37 1.01,3.82 0,1.17 -0.22,2.25 -0.67,3.24 -0.44,0.99 -1.11,1.85 -2,2.57 -0.89,0.73 -1.99,1.25 -3.32,1.58l7.36 9.8zm-14.83 -12.32l4 0c1.91,0 3.35,-0.41 4.33,-1.24 0.98,-0.83 1.47,-1.99 1.47,-3.49 0,-1.45 -0.45,-2.55 -1.35,-3.32 -0.9,-0.76 -2.23,-1.14 -3.98,-1.14l-4.46 0 0 9.19z"/>
  <g id="_2820044981536">
   <path class="fil1" d="M91.93 77.02c-0.03,-8.36 -0.06,-16.72 -0.06,-25.08 0,-30.98 28.59,-51.94 57.91,-51.94 29.16,0 58.89,20.87 58.84,51.96l-0.04 25.04c-0.01,5.45 -4.6,9.7 -9.99,9.69 -5.39,-0.01 -9.96,-4.28 -9.96,-9.73l0.04 -25.04c0.03,-19.97 -20.67,-32.5 -38.89,-32.5 -18.39,0 -37.96,12.55 -37.96,32.52 0,8.33 0.03,16.67 0.06,25 0.02,5.45 -4.55,9.73 -9.94,9.75 -5.39,0.02 -9.99,-4.22 -10.01,-9.68z"/>
   <path class="fil2" d="M55.06 101.84l193.17 0c13.53,1.02 17.85,17.79 18.82,30.75l16.72 176.66c1.89,19.93 -5.72,36.17 -27.08,37.66l-77.98 -0.13c-25.07,0.9 -42.79,-26.71 -39.37,-50.65 3.61,-25.3 23.19,-55.34 0.35,-72.79 -35.18,-26.89 -66.18,16.75 -97.21,-15.01 -7.47,-7.64 -13.22,-23.22 -12,-33.1l5.19 -50.93c3.27,-17.62 8.81,-20.1 19.37,-22.46z"/>
   <path class="fil1" d="M109.27 237.58l-91.66 25.36c-22.76,6.53 -19.79,21.1 -11.43,27.23 4.75,3.49 11.23,6.08 17.15,7.42 40.08,9.08 35.25,35.12 41.84,51.93 5.5,14.02 23.57,19.08 30.58,-3.13l28.38 -89.93c4.82,-12.06 -2.6,-21.5 -14.87,-18.89z"/>
   <path class="fil3 str0" d="M34.92 381.05l32.22 0c5.37,0 8.34,0.28 13.32,2.96 2.62,1.42 4.78,3.22 6.35,5.37 3.57,4.89 4.15,10.69 3.85,19.57 -0.36,10.56 0.5,19.34 -10.83,23.84 1.26,0.23 2.45,0.77 3.59,1.51 10.41,6.7 9.71,21.69 8.05,41.15 -0.58,6.73 -5.48,14.44 -11.93,18.92 -4.2,2.92 -6.58,3.15 -12.04,3.68l-31.86 0.07 -0.71 -117.06zm32.95 21.81l0 18.2c0,2.45 -2.01,4.46 -4.46,4.46l-0 0 -6.96 0 0 -26.94 5.7 0c3.31,-0.01 5.72,1.29 5.72,4.28zm0.89 44.96l0 23.02c0,3.11 -2.16,5.64 -4.81,5.64l-0 0 -7.5 0 0 -34.08 6.15 0c3.57,-0.01 6.16,1.64 6.16,5.41z"/>
   <path class="fil1 str1" d="M114.49 381.03l22.87 0 6.78 70.5 6.78 -70.5 24.37 -0.02 -19.29 103.62c-1.65,8.03 -5.22,13.51 -13.96,13.4l-25.86 -0.33 0.11 -15.4 12.49 0 -14.3 -101.28z"/>
   <polygon class="fil2 str2" points="190.17,381.11 226.71,381.05 235.99,451.75 245.26,381.05 281.8,381.11 281.81,498.02 260.81,498.04 260.8,411.82 246.4,498.01 236.31,498.02 235.67,498.02 225.57,498.01 211.17,411.82 211.16,498.04 190.16,498.02 "/>
  </g>
  <polygon class="fil0" points="190.28,531.58 204.32,531.58 204.32,534.73 193.83,534.73 193.83,542.28 203.96,542.28 203.96,545.44 193.83,545.44 193.83,553.16 204.65,553.16 204.65,556.32 190.28,556.32 "/>
  <polygon class="fil0" points="147.91,531.51 151.25,531.51 151.25,556.25 147.7,556.25 147.7,537 140.09,546.56 139.44,546.56 131.74,537 131.74,556.25 128.19,556.25 128.19,531.51 131.6,531.51 139.78,541.67 "/>
  <path class="fil0" d="M110.31 556.28c-3.53,0 -6.44,-1.16 -8.74,-3.49 -2.29,-2.32 -3.44,-5.27 -3.44,-8.85 0,-3.58 1.15,-6.54 3.46,-8.86 2.3,-2.32 5.21,-3.49 8.72,-3.49 3.52,0 6.44,1.16 8.77,3.5 2.32,2.33 3.47,5.28 3.47,8.85 0,3.58 -1.16,6.52 -3.46,8.85 -2.31,2.32 -5.24,3.49 -8.78,3.49zm0.01 -2.75c2.64,0 4.84,-0.9 6.58,-2.71 1.73,-1.8 2.6,-4.1 2.6,-6.87 0,-2.78 -0.87,-5.08 -2.59,-6.89 -1.72,-1.81 -3.93,-2.71 -6.58,-2.71 -2.64,0 -4.83,0.91 -6.57,2.72 -1.74,1.81 -2.6,4.11 -2.6,6.87 0,2.77 0.87,5.07 2.6,6.87 1.74,1.81 3.93,2.71 6.57,2.71z"/>
  <path class="fil0" d="M91.42 547.86l2.33 1.73c-1.06,2.02 -2.53,3.58 -4.39,4.67 -1.85,1.09 -3.96,1.63 -6.32,1.63 -3.48,0 -6.36,-1.15 -8.63,-3.45 -2.27,-2.29 -3.4,-5.21 -3.4,-8.74 0,-3.54 1.14,-6.46 3.41,-8.76 2.28,-2.3 5.15,-3.45 8.62,-3.45 2.15,0 4.12,0.47 5.89,1.41 1.77,0.94 3.21,2.29 4.32,4.03l-2.43 1.73c-0.73,-1.39 -1.78,-2.48 -3.16,-3.27 -1.37,-0.79 -2.91,-1.18 -4.61,-1.18 -2.61,0 -4.78,0.9 -6.49,2.69 -1.71,1.79 -2.57,4.06 -2.57,6.79 0,2.74 0.85,5.01 2.57,6.79 1.71,1.78 3.88,2.68 6.49,2.68 1.83,0 3.45,-0.45 4.86,-1.35 1.42,-0.9 2.59,-2.22 3.52,-3.96z"/>
  <polygon class="fil0" points="55.89,544.41 64.7,544.41 64.7,548 55.89,548 "/>
  <polygon class="fil0" points="180.03,531.51 183.38,531.51 183.38,556.25 179.82,556.25 179.82,537 172.22,546.56 171.56,546.56 163.86,537 163.86,556.25 160.31,556.25 160.31,531.51 163.72,531.51 171.9,541.67 "/>
  <polygon class="fil0" points="35.36,531.58 49.4,531.58 49.4,534.73 38.91,534.73 38.91,542.28 49.04,542.28 49.04,545.44 38.91,545.44 38.91,553.16 49.73,553.16 49.73,556.32 35.36,556.32 "/>
  <polygon class="fil0" points="262.06,531.58 276.1,531.58 276.1,534.73 265.61,534.73 265.61,542.28 275.73,542.28 275.73,545.44 265.61,545.44 265.61,553.16 276.43,553.16 276.43,556.32 262.06,556.32 "/>
  <path class="fil0" d="M253.77 547.86l2.33 1.73c-1.06,2.02 -2.53,3.58 -4.39,4.67 -1.85,1.09 -3.96,1.63 -6.32,1.63 -3.48,0 -6.36,-1.15 -8.63,-3.45 -2.27,-2.29 -3.4,-5.21 -3.4,-8.74 0,-3.54 1.14,-6.46 3.41,-8.76 2.28,-2.3 5.15,-3.45 8.62,-3.45 2.15,0 4.12,0.47 5.89,1.41 1.77,0.94 3.21,2.29 4.32,4.03l-2.43 1.73c-0.73,-1.39 -1.78,-2.48 -3.16,-3.27 -1.37,-0.79 -2.91,-1.18 -4.61,-1.18 -2.61,0 -4.78,0.9 -6.49,2.69 -1.71,1.79 -2.57,4.06 -2.57,6.79 0,2.74 0.85,5.01 2.57,6.79 1.71,1.78 3.88,2.68 6.49,2.68 1.83,0 3.45,-0.45 4.86,-1.35 1.42,-0.9 2.59,-2.22 3.52,-3.96z"/>
  <polygon class="fil4" points="90.81,538.66 93.23,536.94 93.64,538.54 "/>
 </g>
</svg>
