<?xml version="1.0" encoding="UTF-8"?>
<!DOCTYPE svg PUBLIC "-//W3C//DTD SVG 1.1//EN" "http://www.w3.org/Graphics/SVG/1.1/DTD/svg11.dtd">
<!-- Creator: CorelDRAW 2020 (64-Bit) -->
<svg xmlns="http://www.w3.org/2000/svg" xml:space="preserve" width="13.1619mm" height="16.7524mm" version="1.1" style="shape-rendering:geometricPrecision; text-rendering:geometricPrecision; image-rendering:optimizeQuality; fill-rule:evenodd; clip-rule:evenodd"
viewBox="0 0 284.06 361.55"
 xmlns:xlink="http://www.w3.org/1999/xlink"
 xmlns:xodm="http://www.corel.com/coreldraw/odm/2003">
 <defs>
  <style type="text/css">
   <![CDATA[
    .fil1 {fill:#1C486D}
    .fil0 {fill:#FEBF56}
   ]]>
  </style>
 </defs>
 <g id="Capa_x0020_1">
  <metadata id="CorelCorpID_0Corel-Layer"/>
  <path class="fil0" d="M91.93 77.02c-0.03,-8.36 -0.06,-16.72 -0.06,-25.08 0,-30.98 28.59,-51.94 57.91,-51.94 29.16,0 58.89,20.87 58.84,51.96l-0.04 25.04c-0.01,5.45 -4.6,9.7 -9.99,9.69 -5.39,-0.01 -9.96,-4.28 -9.96,-9.73l0.04 -25.04c0.03,-19.97 -20.67,-32.5 -38.89,-32.5 -18.39,0 -37.96,12.55 -37.96,32.52 0,8.33 0.03,16.67 0.06,25 0.02,5.45 -4.55,9.73 -9.94,9.75 -5.39,0.02 -9.99,-4.22 -10.01,-9.68z"/>
  <path class="fil1" d="M55.06 101.84l193.17 0c13.53,1.02 17.85,17.79 18.82,30.75l16.72 176.66c1.89,19.93 -5.72,36.17 -27.08,37.66l-77.98 -0.13c-25.07,0.9 -42.79,-26.71 -39.37,-50.65 3.61,-25.3 23.19,-55.34 0.35,-72.79 -35.18,-26.89 -66.18,16.75 -97.21,-15.01 -7.47,-7.64 -13.22,-23.22 -12,-33.1l5.19 -50.93c3.27,-17.62 8.81,-20.1 19.37,-22.46z"/>
  <path class="fil0" d="M109.27 237.58l-91.66 25.36c-22.76,6.53 -19.79,21.1 -11.43,27.23 4.75,3.49 11.23,6.08 17.15,7.42 40.08,9.08 35.25,35.12 41.84,51.93 5.5,14.02 23.57,19.08 30.58,-3.13l28.38 -89.93c4.82,-12.06 -2.6,-21.5 -14.87,-18.89z"/>
 </g>
</svg>
