<?xml version="1.0" encoding="UTF-8"?>
<!DOCTYPE svg PUBLIC "-//W3C//DTD SVG 1.1//EN" "http://www.w3.org/Graphics/SVG/1.1/DTD/svg11.dtd">
<!-- Creator: CorelDRAW 2020 (64-Bit) -->
<svg xmlns="http://www.w3.org/2000/svg" xml:space="preserve" width="11.5163mm" height="5.502mm" version="1.1" style="shape-rendering:geometricPrecision; text-rendering:geometricPrecision; image-rendering:optimizeQuality; fill-rule:evenodd; clip-rule:evenodd"
viewBox="0 0 206.76 98.78"
 xmlns:xlink="http://www.w3.org/1999/xlink"
 xmlns:xodm="http://www.corel.com/coreldraw/odm/2003">
 <defs>
  <style type="text/css">
   <![CDATA[
    .str0 {stroke:#ffffff;stroke-width:1.37;stroke-miterlimit:22.9256}
    .str2 {stroke:#1C486D;stroke-width:1.37;stroke-miterlimit:22.9256}
    .str1 {stroke:#FEBF56;stroke-width:1.37;stroke-miterlimit:22.9256}
    .fil0 {fill:#ffffff}
    .fil2 {fill:#1C486D}
    .fil1 {fill:#FEBF56}
   ]]>
  </style>
 </defs>
 <g id="Capa_x0020_1">
  <metadata id="CorelCorpID_0Corel-Layer"/>
  <path class="fil0 str0" d="M0.69 0.72l26.8 0c4.47,0 6.94,0.23 11.08,2.46 2.18,1.18 3.98,2.68 5.29,4.46 2.97,4.07 3.45,8.89 3.2,16.28 -0.3,8.78 0.41,16.08 -9.01,19.83 1.05,0.19 2.03,0.64 2.98,1.26 8.66,5.58 8.08,18.04 6.69,34.23 -0.48,5.6 -4.56,12.01 -9.92,15.74 -3.5,2.43 -5.47,2.62 -10.01,3.06l-26.5 0.06 -0.59 -97.38zm27.41 18.14l0 15.14c0,2.04 -1.67,3.71 -3.71,3.71l-0 0 -5.79 0 0 -22.41 4.74 0c2.76,-0.01 4.76,1.08 4.76,3.56zm0.74 37.4l0 19.15c0,2.58 -1.8,4.69 -4,4.69l-0 0 -6.24 0 0 -28.35 5.11 0c2.97,-0.01 5.13,1.36 5.13,4.5z"/>
  <path class="fil1 str1" d="M66.88 0.7l19.02 0 5.64 58.65 5.64 -58.65 20.27 -0.01 -16.04 86.2c-1.37,6.68 -4.34,11.24 -11.61,11.15l-21.51 -0.27 0.09 -12.81 10.39 0 -11.9 -84.25z"/>
  <polygon class="fil2 str2" points="129.84,0.77 160.24,0.72 167.95,59.53 175.67,0.72 206.06,0.77 206.07,98.03 188.6,98.04 188.59,26.32 176.61,98.02 168.22,98.03 167.69,98.03 159.29,98.02 147.31,26.32 147.3,98.04 129.83,98.03 "/>
 </g>
</svg>
