<?xml version="1.0" encoding="UTF-8"?>
<!DOCTYPE svg PUBLIC "-//W3C//DTD SVG 1.1//EN" "http://www.w3.org/Graphics/SVG/1.1/DTD/svg11.dtd">
<!-- Creator: CorelDRAW 2020 (64-Bit) -->
<svg xmlns="http://www.w3.org/2000/svg" xml:space="preserve" width="11.5163mm" height="8.1612mm" version="1.1" style="shape-rendering:geometricPrecision; text-rendering:geometricPrecision; image-rendering:optimizeQuality; fill-rule:evenodd; clip-rule:evenodd"
viewBox="0 0 206.76 146.52"
 xmlns:xlink="http://www.w3.org/1999/xlink"
 xmlns:xodm="http://www.corel.com/coreldraw/odm/2003">
 <defs>
  <style type="text/css">
   <![CDATA[
    .str0 {stroke:#ffffff;stroke-width:1.37;stroke-miterlimit:22.9256}
    .str2 {stroke:#1C486D;stroke-width:1.37;stroke-miterlimit:22.9256}
    .str1 {stroke:#FEBF56;stroke-width:1.37;stroke-miterlimit:22.9256}
    .fil4 {fill:#434242}
    .fil1 {fill:#ffffff}
    .fil3 {fill:#1C486D}
    .fil2 {fill:#FEBF56}
    .fil0 {fill:#ffffff;fill-rule:nonzero}
   ]]>
  </style>
 </defs>
 <g id="Capa_x0020_1">
  <metadata id="CorelCorpID_0Corel-Layer"/>
  <path class="fil0" d="M162.41 146.32l0 0.19 -3.36 0 -5.93 -8.02 -3.04 0 0 8.02 -2.92 0 0 -20.55 6.69 0c1.61,0 2.97,0.25 4.08,0.76 1.11,0.51 1.94,1.22 2.5,2.12 0.56,0.91 0.84,1.97 0.84,3.17 0,0.97 -0.18,1.87 -0.55,2.69 -0.37,0.82 -0.92,1.54 -1.67,2.14 -0.74,0.6 -1.66,1.04 -2.76,1.32l6.12 8.15zm-12.34 -10.25l3.33 0c1.59,0 2.79,-0.34 3.6,-1.03 0.81,-0.69 1.22,-1.66 1.22,-2.9 0,-1.2 -0.38,-2.12 -1.13,-2.76 -0.75,-0.63 -1.86,-0.95 -3.31,-0.95l-3.71 0 0 7.64z"/>
  <path class="fil1 str0" d="M0.69 0.72l26.8 0c4.47,0 6.94,0.23 11.08,2.46 2.18,1.18 3.98,2.68 5.29,4.46 2.97,4.07 3.45,8.89 3.2,16.28 -0.3,8.78 0.41,16.08 -9.01,19.83 1.05,0.19 2.03,0.64 2.98,1.26 8.66,5.58 8.08,18.04 6.69,34.23 -0.48,5.6 -4.56,12.01 -9.92,15.74 -3.5,2.43 -5.47,2.62 -10.01,3.06l-26.5 0.06 -0.59 -97.38zm27.41 18.14l0 15.14c0,2.04 -1.67,3.71 -3.71,3.71l-0 0 -5.79 0 0 -22.41 4.74 0c2.76,-0.01 4.76,1.08 4.76,3.56zm0.74 37.4l0 19.15c0,2.58 -1.8,4.69 -4,4.69l-0 0 -6.24 0 0 -28.35 5.11 0c2.97,-0.01 5.13,1.36 5.13,4.5z"/>
  <path class="fil2 str1" d="M66.88 0.7l19.02 0 5.64 58.65 5.64 -58.65 20.27 -0.01 -16.04 86.2c-1.37,6.68 -4.34,11.24 -11.61,11.15l-21.51 -0.27 0.09 -12.81 10.39 0 -11.9 -84.25z"/>
  <polygon class="fil3 str2" points="129.84,0.77 160.24,0.72 167.95,59.53 175.67,0.72 206.06,0.77 206.07,98.03 188.6,98.04 188.59,26.32 176.61,98.02 168.22,98.03 167.69,98.03 159.29,98.02 147.31,26.32 147.3,98.04 129.83,98.03 "/>
  <polygon class="fil0" points="129.93,125.94 141.61,125.94 141.61,128.57 132.89,128.57 132.89,134.84 141.31,134.84 141.31,137.47 132.89,137.47 132.89,143.9 141.88,143.9 141.88,146.52 129.93,146.52 "/>
  <polygon class="fil0" points="94.68,125.88 97.47,125.88 97.47,146.46 94.51,146.46 94.51,130.45 88.18,138.41 87.63,138.41 81.23,130.45 81.23,146.46 78.28,146.46 78.28,125.88 81.11,125.88 87.92,134.34 "/>
  <path class="fil0" d="M63.4 146.49c-2.94,0 -5.36,-0.97 -7.27,-2.9 -1.91,-1.93 -2.87,-4.38 -2.87,-7.36 0,-2.98 0.96,-5.44 2.88,-7.37 1.91,-1.93 4.33,-2.9 7.26,-2.9 2.93,0 5.36,0.97 7.29,2.91 1.93,1.94 2.89,4.39 2.89,7.36 0,2.97 -0.96,5.43 -2.88,7.36 -1.92,1.93 -4.36,2.9 -7.3,2.9zm0.01 -2.29c2.2,0 4.02,-0.75 5.47,-2.25 1.44,-1.5 2.16,-3.41 2.16,-5.72 0,-2.31 -0.72,-4.23 -2.16,-5.73 -1.43,-1.5 -3.27,-2.25 -5.48,-2.25 -2.2,0 -4.02,0.76 -5.47,2.27 -1.44,1.51 -2.16,3.42 -2.16,5.72 0,2.31 0.72,4.22 2.16,5.72 1.45,1.5 3.27,2.25 5.47,2.25z"/>
  <path class="fil0" d="M47.69 139.48l1.94 1.44c-0.89,1.68 -2.11,2.98 -3.65,3.88 -1.54,0.9 -3.29,1.36 -5.26,1.36 -2.9,0 -5.29,-0.96 -7.18,-2.87 -1.89,-1.91 -2.83,-4.33 -2.83,-7.27 0,-2.94 0.95,-5.38 2.84,-7.28 1.9,-1.91 4.29,-2.87 7.17,-2.87 1.79,0 3.42,0.39 4.9,1.17 1.47,0.78 2.67,1.9 3.59,3.35l-2.02 1.44c-0.6,-1.15 -1.48,-2.06 -2.63,-2.72 -1.14,-0.65 -2.42,-0.98 -3.84,-0.98 -2.17,0 -3.97,0.75 -5.4,2.24 -1.43,1.49 -2.14,3.38 -2.14,5.65 0,2.28 0.71,4.17 2.14,5.65 1.42,1.48 3.22,2.23 5.4,2.23 1.52,0 2.87,-0.38 4.04,-1.13 1.18,-0.75 2.16,-1.84 2.93,-3.29z"/>
  <polygon class="fil0" points="18.13,136.61 25.47,136.61 25.47,139.6 18.13,139.6 "/>
  <polygon class="fil0" points="121.4,125.88 124.19,125.88 124.19,146.46 121.23,146.46 121.23,130.45 114.9,138.41 114.36,138.41 107.95,130.45 107.95,146.46 105,146.46 105,125.88 107.83,125.88 114.64,134.34 "/>
  <polygon class="fil0" points="1.06,125.94 12.74,125.94 12.74,128.57 4.01,128.57 4.01,134.84 12.43,134.84 12.43,137.47 4.01,137.47 4.01,143.9 13.01,143.9 13.01,146.52 1.06,146.52 "/>
  <polygon class="fil0" points="189.64,125.94 201.32,125.94 201.32,128.57 192.6,128.57 192.6,134.84 201.02,134.84 201.02,137.47 192.6,137.47 192.6,143.9 201.59,143.9 201.59,146.52 189.64,146.52 "/>
  <path class="fil0" d="M182.74 139.48l1.94 1.44c-0.89,1.68 -2.11,2.98 -3.65,3.88 -1.54,0.9 -3.29,1.36 -5.26,1.36 -2.9,0 -5.29,-0.96 -7.18,-2.87 -1.89,-1.91 -2.83,-4.33 -2.83,-7.27 0,-2.94 0.95,-5.38 2.84,-7.28 1.9,-1.91 4.29,-2.87 7.17,-2.87 1.79,0 3.42,0.39 4.9,1.17 1.47,0.78 2.67,1.9 3.59,3.35l-2.02 1.44c-0.6,-1.15 -1.48,-2.06 -2.63,-2.72 -1.14,-0.65 -2.42,-0.98 -3.84,-0.98 -2.17,0 -3.97,0.75 -5.4,2.24 -1.43,1.49 -2.14,3.38 -2.14,5.65 0,2.28 0.71,4.17 2.14,5.65 1.42,1.48 3.22,2.23 5.4,2.23 1.52,0 2.87,-0.38 4.04,-1.13 1.18,-0.75 2.16,-1.84 2.93,-3.29z"/>
  <polygon class="fil4" points="47.18,131.83 49.2,130.4 49.54,131.73 "/>
 </g>
</svg>
