<?xml version="1.0" encoding="UTF-8"?>
<!DOCTYPE svg PUBLIC "-//W3C//DTD SVG 1.1//EN" "http://www.w3.org/Graphics/SVG/1.1/DTD/svg11.dtd">
<!-- Creator: CorelDRAW 2020 (64-Bit) -->
<svg xmlns="http://www.w3.org/2000/svg" xml:space="preserve" width="11.1698mm" height="1.1502mm" version="1.1" style="shape-rendering:geometricPrecision; text-rendering:geometricPrecision; image-rendering:optimizeQuality; fill-rule:evenodd; clip-rule:evenodd"
viewBox="0 0 194.15 19.99"
 xmlns:xlink="http://www.w3.org/1999/xlink"
 xmlns:xodm="http://www.corel.com/coreldraw/odm/2003">
 <defs>
  <style type="text/css">
   <![CDATA[
    .fil1 {fill:#434242}
    .fil0 {fill:#434242;fill-rule:nonzero}
   ]]>
  </style>
 </defs>
 <g id="Capa_x0020_1">
  <metadata id="CorelCorpID_0Corel-Layer"/>
  <path class="fil0" d="M156.21 19.79l0 0.18 -3.26 0 -5.74 -7.77 -2.95 0 0 7.77 -2.83 0 0 -19.9 6.48 0c1.56,0 2.87,0.25 3.95,0.74 1.07,0.49 1.88,1.18 2.42,2.06 0.54,0.88 0.81,1.91 0.81,3.07 0,0.94 -0.18,1.81 -0.54,2.61 -0.36,0.8 -0.9,1.49 -1.61,2.07 -0.72,0.58 -1.61,1.01 -2.67,1.28l5.93 7.89zm-11.94 -9.92l3.22 0c1.53,0 2.7,-0.33 3.48,-1 0.79,-0.67 1.18,-1.6 1.18,-2.81 0,-1.17 -0.36,-2.06 -1.09,-2.67 -0.73,-0.61 -1.8,-0.92 -3.21,-0.92l-3.59 0 0 7.4z"/>
  <polygon class="fil0" points="124.77,0.07 136.08,0.07 136.08,2.61 127.63,2.61 127.63,8.68 135.78,8.68 135.78,11.23 127.63,11.23 127.63,17.45 136.34,17.45 136.34,19.99 124.77,19.99 "/>
  <polygon class="fil0" points="90.64,0.01 93.34,0.01 93.34,19.93 90.48,19.93 90.48,4.43 84.35,12.13 83.82,12.13 77.62,4.43 77.62,19.93 74.76,19.93 74.76,0.01 77.51,0.01 84.09,8.19 "/>
  <path class="fil0" d="M60.36 19.96c-2.85,0 -5.19,-0.94 -7.04,-2.81 -1.85,-1.87 -2.77,-4.24 -2.77,-7.12 0,-2.89 0.93,-5.27 2.79,-7.14 1.85,-1.87 4.19,-2.81 7.03,-2.81 2.84,0 5.19,0.94 7.06,2.82 1.87,1.88 2.8,4.25 2.8,7.13 0,2.88 -0.93,5.25 -2.79,7.12 -1.86,1.87 -4.22,2.81 -7.07,2.81zm0.01 -2.22c2.13,0 3.9,-0.73 5.3,-2.18 1.39,-1.45 2.09,-3.3 2.09,-5.53 0,-2.24 -0.7,-4.09 -2.09,-5.55 -1.39,-1.45 -3.16,-2.18 -5.3,-2.18 -2.13,0 -3.89,0.73 -5.29,2.19 -1.4,1.46 -2.09,3.31 -2.09,5.54 0,2.23 0.7,4.08 2.09,5.53 1.4,1.46 3.17,2.18 5.29,2.18z"/>
  <path class="fil0" d="M45.15 13.18l1.88 1.39c-0.86,1.63 -2.04,2.89 -3.53,3.76 -1.49,0.88 -3.19,1.32 -5.09,1.32 -2.81,0 -5.12,-0.93 -6.95,-2.78 -1.83,-1.85 -2.74,-4.19 -2.74,-7.04 0,-2.85 0.92,-5.2 2.75,-7.05 1.84,-1.85 4.15,-2.78 6.94,-2.78 1.73,0 3.31,0.38 4.74,1.14 1.43,0.76 2.58,1.84 3.48,3.25l-1.95 1.39c-0.58,-1.12 -1.44,-2 -2.54,-2.63 -1.11,-0.63 -2.35,-0.95 -3.71,-0.95 -2.1,0 -3.85,0.72 -5.23,2.17 -1.38,1.44 -2.07,3.27 -2.07,5.47 0,2.21 0.69,4.03 2.07,5.47 1.38,1.44 3.12,2.16 5.23,2.16 1.47,0 2.78,-0.37 3.92,-1.09 1.14,-0.72 2.09,-1.79 2.83,-3.19z"/>
  <polygon class="fil0" points="16.53,10.4 23.63,10.4 23.63,13.29 16.53,13.29 "/>
  <polygon class="fil0" points="116.51,0.01 119.21,0.01 119.21,19.93 116.35,19.93 116.35,4.43 110.22,12.13 109.69,12.13 103.49,4.43 103.49,19.93 100.63,19.93 100.63,0.01 103.37,0.01 109.96,8.19 "/>
  <polygon class="fil0" points="-0,0.07 11.31,0.07 11.31,2.61 2.86,2.61 2.86,8.68 11.01,8.68 11.01,11.23 2.86,11.23 2.86,17.45 11.57,17.45 11.57,19.99 -0,19.99 "/>
  <polygon class="fil0" points="182.58,0.07 193.89,0.07 193.89,2.61 185.44,2.61 185.44,8.68 193.59,8.68 193.59,11.23 185.44,11.23 185.44,17.45 194.15,17.45 194.15,19.99 182.58,19.99 "/>
  <path class="fil0" d="M175.9 13.18l1.88 1.39c-0.86,1.63 -2.04,2.89 -3.53,3.76 -1.49,0.88 -3.19,1.32 -5.09,1.32 -2.81,0 -5.12,-0.93 -6.95,-2.78 -1.83,-1.85 -2.74,-4.19 -2.74,-7.04 0,-2.85 0.92,-5.2 2.75,-7.05 1.84,-1.85 4.15,-2.78 6.94,-2.78 1.73,0 3.31,0.38 4.74,1.14 1.43,0.76 2.58,1.84 3.48,3.25l-1.95 1.39c-0.58,-1.12 -1.44,-2 -2.54,-2.63 -1.11,-0.63 -2.35,-0.95 -3.71,-0.95 -2.1,0 -3.85,0.72 -5.23,2.17 -1.38,1.44 -2.07,3.27 -2.07,5.47 0,2.21 0.69,4.03 2.07,5.47 1.38,1.44 3.12,2.16 5.23,2.16 1.47,0 2.78,-0.37 3.92,-1.09 1.14,-0.72 2.09,-1.79 2.83,-3.19z"/>
  <polygon class="fil1" points="44.66,5.77 46.61,4.38 46.94,5.67 "/>
 </g>
</svg>
