<svg xmlns="http://www.w3.org/2000/svg" width="20" height="20" viewBox="0 0 30 30" fill="none">
  <path d="M13.75 6.24947H7.5C6.83696 6.24947 6.20107 6.51286 5.73223 6.9817C5.26339 7.45054 5 8.08643 5 8.74947V22.4995C5 23.1625 5.26339 23.7984 5.73223 24.2672C6.20107 24.7361 6.83696 24.9995 7.5 24.9995H21.25C21.913 24.9995 22.5489 24.7361 23.0178 24.2672C23.4866 23.7984 23.75 23.1625 23.75 22.4995V16.2495M21.9825 4.48197C22.2131 4.24319 22.489 4.05274 22.794 3.92172C23.099 3.79069 23.427 3.72173 23.759 3.71884C24.0909 3.71596 24.4201 3.77921 24.7274 3.90492C25.0346 4.03062 25.3138 4.21625 25.5485 4.45098C25.7832 4.68571 25.9689 4.96484 26.0946 5.27209C26.2203 5.57933 26.2835 5.90853 26.2806 6.24047C26.2777 6.57242 26.2088 6.90047 26.0778 7.20548C25.9467 7.51049 25.7563 7.78635 25.5175 8.01697L14.785 18.7495H11.25V15.2145L21.9825 4.48197Z" stroke="#726E6E" stroke-width="2" stroke-linecap="round" stroke-linejoin="round"/>
</svg>