<svg xmlns="http://www.w3.org/2000/svg" width="18" height="21" viewBox="0 0 18 21" fill="none">
<path d="M16 5.39053L15.133 17.8287C15.0971 18.3456 14.8713 18.8293 14.5011 19.1825C14.1309 19.5357 13.6439 19.732 13.138 19.732H4.862C4.35614 19.732 3.86907 19.5357 3.49889 19.1825C3.1287 18.8293 2.90292 18.3456 2.867 17.8287L2 5.39053M7 9.48809V15.6344M11 9.48809V15.6344M12 5.39053V2.31736C12 2.04567 11.8946 1.78512 11.7071 1.59301C11.5196 1.4009 11.2652 1.29297 11 1.29297H7C6.73478 1.29297 6.48043 1.4009 6.29289 1.59301C6.10536 1.78512 6 2.04567 6 2.31736V5.39053M1 5.39053H17" stroke="white" stroke-width="2" stroke-linecap="round" stroke-linejoin="round"/>
</svg>