<svg xmlns="http://www.w3.org/2000/svg" width="120" height="98" viewBox="0 0 120 98" fill="none">
<path d="M115.809 38.2747L78.8877 1.35377C78.0262 0.49228 76.857 0 75.6263 0H4.61511C2.09218 0 0 2.09218 0 4.61511V53.1046C0 54.3353 0.492279 55.5044 1.35377 56.3659L38.2747 93.2253C40.9822 95.9328 44.5512 97.4096 48.3664 97.4096C52.1815 97.4096 55.8121 95.9328 58.4581 93.2253L59.8119 91.8715C60.058 92.3638 60.3041 92.8561 60.7349 93.2253C63.504 95.9943 67.196 97.4096 70.8266 97.4096C74.4572 97.4096 78.1492 95.9943 80.9798 93.2253L115.747 58.4581C121.285 52.92 121.285 43.8743 115.747 38.2747H115.809ZM51.9969 86.7026C51.0124 87.6871 49.7817 88.1794 48.4279 88.1794C47.0742 88.1794 45.7819 87.6256 44.8589 86.7026L9.23023 51.197V9.23022H51.197L86.7641 44.7974C88.7332 46.7665 88.7332 49.9663 86.7641 51.9354L51.9969 86.7026ZM109.286 51.9354L74.5187 86.7026C72.5496 88.6717 69.2882 88.6717 67.3191 86.7026C66.8884 86.2718 66.4576 86.0257 65.9038 85.7796L93.2253 58.4581C98.7634 52.8584 98.7634 43.8128 93.2253 38.2747L64.1808 9.23022H73.6572L109.224 44.7974C111.193 46.7665 111.193 49.9663 109.224 51.9354H109.286ZM36.9209 27.1984C36.9209 31.4443 33.475 34.8903 29.229 34.8903C24.9831 34.8903 21.5372 31.4443 21.5372 27.1984C21.5372 22.9525 24.9831 19.5065 29.229 19.5065C33.475 19.5065 36.9209 22.9525 36.9209 27.1984Z" fill="#8D8D8D" fill-opacity="0.44"/>
</svg>