<svg xmlns="http://www.w3.org/2000/svg" width="114" height="111" viewBox="0 0 114 111" fill="none">
<path d="M55.2394 101.333C55.788 101.593 56.3872 101.735 56.9969 101.75C57.669 101.747 58.3327 101.605 58.9444 101.333C104.497 81.7234 99.7469 32.3747 99.7469 31.9122C99.6623 31.1383 99.3785 30.3978 98.9218 29.7591C98.4652 29.1204 97.8504 28.6042 97.1344 28.2584L59.1344 9.75841C58.4714 9.43312 57.7393 9.26367 56.9969 9.26367C56.2544 9.26367 55.5224 9.43312 54.8594 9.75841L16.8594 28.2584C16.1434 28.6042 15.5286 29.1204 15.0719 29.7591C14.6152 30.3978 14.3314 31.1383 14.2469 31.9122C14.2469 32.3747 9.87685 81.7234 55.2394 101.333ZM23.7469 35.2884L56.9969 19.0547L90.2469 35.2884C90.4844 44.5384 88.9644 76.9134 56.9969 92.0372C24.9819 76.9134 23.4619 44.5847 23.7469 35.2884Z" fill="#8D8D8D" fill-opacity="0.44"/>
</svg>