<svg width="78" height="40" viewBox="0 0 78 40" fill="none" xmlns="http://www.w3.org/2000/svg">
<rect width="78" height="40" rx="20" fill="#010101" fill-opacity="0.67"/>
<rect x="1" y="1" width="76" height="38" rx="19" stroke="#E9E9E9" stroke-opacity="0.87" stroke-width="2"/>
<rect x="35.5" width="42.5" height="40" rx="20" fill="#F7F3F3"/>
<rect x="36.5" y="1" width="40.5" height="38" rx="19" stroke="#C6BEBE" stroke-opacity="0.81" stroke-width="2"/>
<path d="M66.4692 20.5193H51.4608C51.1894 20.5193 50.9291 20.4114 50.7372 20.2195C50.5453 20.0276 50.4375 19.7673 50.4375 19.496C50.4375 19.2246 50.5453 18.9643 50.7372 18.7724C50.9291 18.5805 51.1894 18.4727 51.4608 18.4727H66.4692C66.7406 18.4727 67.0008 18.5805 67.1927 18.7724C67.3846 18.9643 67.4925 19.2246 67.4925 19.496C67.4925 19.7673 67.3846 20.0276 67.1927 20.2195C67.0008 20.4114 66.7406 20.5193 66.4692 20.5193Z" fill="black" fill-opacity="0.64"/>
<path d="M66.4692 14.3786H51.4608C51.1894 14.3786 50.9291 14.2708 50.7372 14.0789C50.5453 13.887 50.4375 13.6267 50.4375 13.3553C50.4375 13.0839 50.5453 12.8237 50.7372 12.6317C50.9291 12.4398 51.1894 12.332 51.4608 12.332H66.4692C66.7406 12.332 67.0008 12.4398 67.1927 12.6317C67.3846 12.8237 67.4925 13.0839 67.4925 13.3553C67.4925 13.6267 67.3846 13.887 67.1927 14.0789C67.0008 14.2708 66.7406 14.3786 66.4692 14.3786Z" fill="black" fill-opacity="0.64"/>
<path d="M66.4692 26.6599H51.4608C51.1894 26.6599 50.9291 26.5521 50.7372 26.3602C50.5453 26.1683 50.4375 25.908 50.4375 25.6366C50.4375 25.3652 50.5453 25.1049 50.7372 24.913C50.9291 24.7211 51.1894 24.6133 51.4608 24.6133H66.4692C66.7406 24.6133 67.0008 24.7211 67.1927 24.913C67.3846 25.1049 67.4925 25.3652 67.4925 25.6366C67.4925 25.908 67.3846 26.1683 67.1927 26.3602C67.0008 26.5521 66.7406 26.6599 66.4692 26.6599Z" fill="black" fill-opacity="0.64"/>
<path d="M47.3644 14.722C47.187 14.7242 47.0109 14.6917 46.8459 14.6265C46.6829 14.5474 46.5314 14.4464 46.3957 14.3263C46.2692 14.1988 46.1692 14.0476 46.1013 13.8814C46.0334 13.7152 45.999 13.5372 46 13.3576C46.005 12.9963 46.1464 12.6503 46.3957 12.3889C46.5238 12.2625 46.6772 12.1649 46.8459 12.1023C47.1781 11.9659 47.5507 11.9659 47.8829 12.1023C48.0504 12.1673 48.2034 12.2647 48.3331 12.3889C48.5825 12.6503 48.7238 12.9963 48.7288 13.3576C48.7299 13.5372 48.6954 13.7152 48.6275 13.8814C48.5596 14.0476 48.4596 14.1988 48.3331 14.3263C48.1974 14.4464 48.0459 14.5474 47.8829 14.6265C47.7179 14.6917 47.5418 14.7242 47.3644 14.722Z" fill="black" fill-opacity="0.64"/>
<path d="M47.3644 20.8615C47.1861 20.8593 47.01 20.8222 46.8459 20.7523C46.6806 20.6832 46.5283 20.5863 46.3957 20.4658C46.2692 20.3383 46.1692 20.1871 46.1013 20.0209C46.0334 19.8546 45.999 19.6766 46 19.4971C46.005 19.1358 46.1464 18.7898 46.3957 18.5283C46.5283 18.4078 46.6806 18.3109 46.8459 18.2418C47.0929 18.1273 47.3685 18.0893 47.6373 18.1327L47.8829 18.2145L48.1285 18.3373C48.2 18.3877 48.2683 18.4424 48.3331 18.5011C48.5889 18.7694 48.7308 19.1264 48.7288 19.4971C48.7288 19.8589 48.5851 20.206 48.3292 20.4618C48.0733 20.7177 47.7263 20.8615 47.3644 20.8615Z" fill="black" fill-opacity="0.64"/>
<path d="M47.3647 26.9998C47.1873 27.0019 47.0112 26.9695 46.8462 26.9042C46.6832 26.8251 46.5317 26.7241 46.396 26.6041C46.2755 26.4715 46.1786 26.3192 46.1095 26.1538C46.0373 25.9905 46 25.8139 46 25.6354C46 25.4568 46.0373 25.2802 46.1095 25.1169C46.1786 24.9515 46.2755 24.7993 46.396 24.6666C46.5879 24.4773 46.8315 24.3491 47.0962 24.2981C47.3609 24.2471 47.6347 24.2756 47.8832 24.3801C48.0507 24.4451 48.2037 24.5424 48.3334 24.6666C48.454 24.7993 48.5509 24.9515 48.62 25.1169C48.6921 25.2802 48.7294 25.4568 48.7294 25.6354C48.7294 25.8139 48.6921 25.9905 48.62 26.1538C48.5509 26.3192 48.454 26.4715 48.3334 26.6041C48.2059 26.7305 48.0547 26.8306 47.8885 26.8985C47.7223 26.9664 47.5443 27.0008 47.3647 26.9998Z" fill="black" fill-opacity="0.64"/>
<path d="M17.7272 19.1817H14.4545C13.8035 19.1817 13.1792 18.9231 12.7189 18.4628C12.2586 18.0025 12 17.3782 12 16.7272V13.4545C12 12.8035 12.2586 12.1792 12.7189 11.7189C13.1792 11.2586 13.8035 11 14.4545 11H17.7272C18.3782 11 19.0025 11.2586 19.4628 11.7189C19.9231 12.1792 20.1817 12.8035 20.1817 13.4545V16.7272C20.1817 17.3782 19.9231 18.0025 19.4628 18.4628C19.0025 18.9231 18.3782 19.1817 17.7272 19.1817ZM14.4545 12.6363C14.2384 12.6392 14.0319 12.7263 13.8791 12.8791C13.7263 13.0319 13.6392 13.2384 13.6363 13.4545V16.7272C13.6392 16.9433 13.7263 17.1498 13.8791 17.3026C14.0319 17.4555 14.2384 17.5426 14.4545 17.5454H17.7272C17.9433 17.5426 18.1498 17.4555 18.3026 17.3026C18.4555 17.1498 18.5426 16.9433 18.5454 16.7272V13.4545C18.5426 13.2384 18.4555 13.0319 18.3026 12.8791C18.1498 12.7263 17.9433 12.6392 17.7272 12.6363H14.4545Z" fill="#F2EFEF"/>
<path d="M17.7272 29.0001H14.4545C13.8035 29.0001 13.1792 28.7415 12.7189 28.2812C12.2586 27.8209 12 27.1966 12 26.5456V23.2729C12 22.6219 12.2586 21.9976 12.7189 21.5373C13.1792 21.077 13.8035 20.8184 14.4545 20.8184H17.7272C18.3782 20.8184 19.0025 21.077 19.4628 21.5373C19.9231 21.9976 20.1817 22.6219 20.1817 23.2729V26.5456C20.1817 27.1966 19.9231 27.8209 19.4628 28.2812C19.0025 28.7415 18.3782 29.0001 17.7272 29.0001ZM14.4545 22.4547C14.2384 22.4575 14.0319 22.5446 13.8791 22.6975C13.7263 22.8503 13.6392 23.0568 13.6363 23.2729V26.5456C13.6392 26.7617 13.7263 26.9682 13.8791 27.121C14.0319 27.2738 14.2384 27.3609 14.4545 27.3637H17.7272C17.9433 27.3609 18.1498 27.2738 18.3026 27.121C18.4555 26.9682 18.5426 26.7617 18.5454 26.5456V23.2729C18.5426 23.0568 18.4555 22.8503 18.3026 22.6975C18.1498 22.5446 17.9433 22.4575 17.7272 22.4547H14.4545Z" fill="#F2EFEF"/>
<path d="M27.5397 19.1817H24.267C23.616 19.1817 22.9917 18.9231 22.5314 18.4628C22.0711 18.0025 21.8125 17.3782 21.8125 16.7272V13.4545C21.8125 12.8035 22.0711 12.1792 22.5314 11.7189C22.9917 11.2586 23.616 11 24.267 11H27.5397C28.1907 11 28.815 11.2586 29.2753 11.7189C29.7356 12.1792 29.9942 12.8035 29.9942 13.4545V16.7272C29.9942 17.3782 29.7356 18.0025 29.2753 18.4628C28.815 18.9231 28.1907 19.1817 27.5397 19.1817ZM24.267 12.6363C24.0509 12.6392 23.8444 12.7263 23.6916 12.8791C23.5388 13.0319 23.4517 13.2384 23.4488 13.4545V16.7272C23.4517 16.9433 23.5388 17.1498 23.6916 17.3026C23.8444 17.4555 24.0509 17.5426 24.267 17.5454H27.5397C27.7558 17.5426 27.9623 17.4555 28.1151 17.3026C28.268 17.1498 28.3551 16.9433 28.3579 16.7272V13.4545C28.3551 13.2384 28.268 13.0319 28.1151 12.8791C27.9623 12.7263 27.7558 12.6392 27.5397 12.6363H24.267Z" fill="#F2EFEF"/>
<path d="M27.5397 29.0001H24.267C23.616 29.0001 22.9917 28.7415 22.5314 28.2812C22.0711 27.8209 21.8125 27.1966 21.8125 26.5456V23.2729C21.8125 22.6219 22.0711 21.9976 22.5314 21.5373C22.9917 21.077 23.616 20.8184 24.267 20.8184H27.5397C28.1907 20.8184 28.815 21.077 29.2753 21.5373C29.7356 21.9976 29.9942 22.6219 29.9942 23.2729V26.5456C29.9942 27.1966 29.7356 27.8209 29.2753 28.2812C28.815 28.7415 28.1907 29.0001 27.5397 29.0001ZM24.267 22.4547C24.0509 22.4575 23.8444 22.5446 23.6916 22.6975C23.5388 22.8503 23.4517 23.0568 23.4488 23.2729V26.5456C23.4517 26.7617 23.5388 26.9682 23.6916 27.121C23.8444 27.2738 24.0509 27.3609 24.267 27.3637H27.5397C27.7558 27.3609 27.9623 27.2738 28.1151 27.121C28.268 26.9682 28.3551 26.7617 28.3579 26.5456V23.2729C28.3551 23.0568 28.268 22.8503 28.1151 22.6975C27.9623 22.5446 27.7558 22.4575 27.5397 22.4547H24.267Z" fill="#F2EFEF"/>
</svg>
