<svg width="78" height="40" viewBox="0 0 78 40" fill="none" xmlns="http://www.w3.org/2000/svg">
<g clip-path="url(#clip0_1_2)">
<path d="M20 40L58 40C69.0457 40 78 31.0457 78 20C78 8.9543 69.0457 0 58 0L20 0C8.95431 0 0 8.9543 0 20C0 31.0457 8.95431 40 20 40Z" fill="#010101" fill-opacity="0.67"/>
<path d="M20 40H22.5C33.5457 40 42.5 31.0457 42.5 20C42.5 8.9543 33.5457 0 22.5 0H20C8.9543 0 0 8.9543 0 20C0 31.0457 8.9543 40 20 40Z" fill="#F7F3F3"/>
<path d="M20 39L58 39C68.4934 39 77 30.4934 77 20C77 9.50659 68.4934 1 58 1L20 1C9.50659 1 1 9.50659 1 20C1 30.4934 9.50659 39 20 39Z" stroke="#E9E9E9" stroke-opacity="0.87" stroke-width="2"/>
<path d="M20 39H22.5C32.9934 39 41.5 30.4934 41.5 20C41.5 9.50659 32.9934 1 22.5 1H20C9.50659 1 1 9.50659 1 20C1 30.4934 9.50659 39 20 39Z" stroke="#C6BEBE" stroke-opacity="0.81" stroke-width="2"/>
<path d="M24.267 20.8184H27.5397C28.1907 20.8184 28.815 21.077 29.2753 21.5373C29.7356 21.9976 29.9942 22.6219 29.9942 23.2729V26.5456C29.9942 27.1966 29.7356 27.8209 29.2753 28.2812C28.815 28.7415 28.1907 29.0001 27.5397 29.0001H24.267C23.616 29.0001 22.9917 28.7415 22.5314 28.2812C22.0711 27.8209 21.8125 27.1966 21.8125 26.5456V23.2729C21.8125 22.6219 22.0711 21.9976 22.5314 21.5373C22.9917 21.077 23.616 20.8184 24.267 20.8184ZM27.5397 27.3638C27.7558 27.3609 27.9623 27.2738 28.1151 27.121C28.2679 26.9682 28.355 26.7617 28.3579 26.5456V23.2729C28.355 23.0568 28.2679 22.8503 28.1151 22.6975C27.9623 22.5446 27.7558 22.4575 27.5397 22.4547H24.267C24.0509 22.4575 23.8444 22.5446 23.6916 22.6975C23.5387 22.8503 23.4516 23.0568 23.4488 23.2729V26.5456C23.4516 26.7617 23.5387 26.9682 23.6916 27.121C23.8444 27.2738 24.0509 27.3609 24.267 27.3638H27.5397Z" fill="#595858"/>
<path d="M24.267 11H27.5397C28.1907 11 28.815 11.2586 29.2753 11.7189C29.7356 12.1792 29.9942 12.8035 29.9942 13.4545V16.7272C29.9942 17.3782 29.7356 18.0025 29.2753 18.4628C28.815 18.9231 28.1907 19.1817 27.5397 19.1817H24.267C23.616 19.1817 22.9917 18.9231 22.5314 18.4628C22.0711 18.0025 21.8125 17.3782 21.8125 16.7272V13.4545C21.8125 12.8035 22.0711 12.1792 22.5314 11.7189C22.9917 11.2586 23.616 11 24.267 11ZM27.5397 17.5454C27.7558 17.5426 27.9623 17.4555 28.1151 17.3026C28.2679 17.1498 28.355 16.9433 28.3579 16.7272V13.4545C28.355 13.2384 28.2679 13.0319 28.1151 12.8791C27.9623 12.7263 27.7558 12.6392 27.5397 12.6364H24.267C24.0509 12.6392 23.8444 12.7263 23.6916 12.8791C23.5387 13.0319 23.4516 13.2384 23.4488 13.4545V16.7272C23.4516 16.9433 23.5387 17.1498 23.6916 17.3026C23.8444 17.4555 24.0509 17.5426 24.267 17.5454H27.5397Z" fill="#595858"/>
<path d="M14.4545 20.8184H17.7272C18.3782 20.8184 19.0025 21.077 19.4628 21.5373C19.9231 21.9976 20.1817 22.6219 20.1817 23.2729V26.5456C20.1817 27.1966 19.9231 27.8209 19.4628 28.2812C19.0025 28.7415 18.3782 29.0001 17.7272 29.0001H14.4545C13.8035 29.0001 13.1792 28.7415 12.7189 28.2812C12.2586 27.8209 12 27.1966 12 26.5456V23.2729C12 22.6219 12.2586 21.9976 12.7189 21.5373C13.1792 21.077 13.8035 20.8184 14.4545 20.8184ZM17.7272 27.3638C17.9433 27.3609 18.1498 27.2738 18.3026 27.121C18.4554 26.9682 18.5425 26.7617 18.5454 26.5456V23.2729C18.5425 23.0568 18.4554 22.8503 18.3026 22.6975C18.1498 22.5446 17.9433 22.4575 17.7272 22.4547H14.4545C14.2384 22.4575 14.0319 22.5446 13.8791 22.6975C13.7262 22.8503 13.6391 23.0568 13.6363 23.2729V26.5456C13.6391 26.7617 13.7262 26.9682 13.8791 27.121C14.0319 27.2738 14.2384 27.3609 14.4545 27.3638H17.7272Z" fill="#595858"/>
<path d="M14.4545 11H17.7272C18.3782 11 19.0025 11.2586 19.4628 11.7189C19.9231 12.1792 20.1817 12.8035 20.1817 13.4545V16.7272C20.1817 17.3782 19.9231 18.0025 19.4628 18.4628C19.0025 18.9231 18.3782 19.1817 17.7272 19.1817H14.4545C13.8035 19.1817 13.1792 18.9231 12.7189 18.4628C12.2586 18.0025 12 17.3782 12 16.7272V13.4545C12 12.8035 12.2586 12.1792 12.7189 11.7189C13.1792 11.2586 13.8035 11 14.4545 11ZM17.7272 17.5454C17.9433 17.5426 18.1498 17.4555 18.3026 17.3026C18.4554 17.1498 18.5425 16.9433 18.5454 16.7272V13.4545C18.5425 13.2384 18.4554 13.0319 18.3026 12.8791C18.1498 12.7263 17.9433 12.6392 17.7272 12.6364H14.4545C14.2384 12.6392 14.0319 12.7263 13.8791 12.8791C13.7262 13.0319 13.6391 13.2384 13.6363 13.4545V16.7272C13.6391 16.9433 13.7262 17.1498 13.8791 17.3026C14.0319 17.4555 14.2384 17.5426 14.4545 17.5454H17.7272Z" fill="#595858"/>
<path d="M67.4692 27.6599H52.4608C52.1894 27.6599 51.9291 27.5521 51.7372 27.3602C51.5453 27.1683 51.4375 26.908 51.4375 26.6366C51.4375 26.3652 51.5453 26.1049 51.7372 25.913C51.9291 25.7211 52.1894 25.6133 52.4608 25.6133H67.4692C67.7406 25.6133 68.0008 25.7211 68.1927 25.913C68.3846 26.1049 68.4925 26.3652 68.4925 26.6366C68.4925 26.908 68.3846 27.1683 68.1927 27.3602C68.0008 27.5521 67.7406 27.6599 67.4692 27.6599Z" fill="#F2EFEF"/>
<path d="M67.4692 15.3786H52.4608C52.1894 15.3786 51.9291 15.2708 51.7372 15.0789C51.5453 14.887 51.4375 14.6267 51.4375 14.3553C51.4375 14.0839 51.5453 13.8237 51.7372 13.6317C51.9291 13.4398 52.1894 13.332 52.4608 13.332H67.4692C67.7406 13.332 68.0008 13.4398 68.1927 13.6317C68.3846 13.8237 68.4925 14.0839 68.4925 14.3553C68.4925 14.6267 68.3846 14.887 68.1927 15.0789C68.0008 15.2708 67.7406 15.3786 67.4692 15.3786Z" fill="#F2EFEF"/>
<path d="M67.4692 21.5193H52.4608C52.1894 21.5193 51.9291 21.4114 51.7372 21.2195C51.5453 21.0276 51.4375 20.7673 51.4375 20.496C51.4375 20.2246 51.5453 19.9643 51.7372 19.7724C51.9291 19.5805 52.1894 19.4727 52.4608 19.4727H67.4692C67.7406 19.4727 68.0008 19.5805 68.1927 19.7724C68.3846 19.9643 68.4925 20.2246 68.4925 20.496C68.4925 20.7673 68.3846 21.0276 68.1927 21.2195C68.0008 21.4114 67.7406 21.5193 67.4692 21.5193Z" fill="#F2EFEF"/>
<path d="M48.3644 15.722C48.187 15.7242 48.0109 15.6917 47.8459 15.6265C47.6829 15.5474 47.5314 15.4464 47.3957 15.3263C47.2692 15.1988 47.1692 15.0476 47.1013 14.8814C47.0334 14.7152 46.999 14.5372 47 14.3576C47.005 13.9963 47.1464 13.6503 47.3957 13.3889C47.5238 13.2625 47.6772 13.1649 47.8459 13.1023C48.1781 12.9659 48.5507 12.9659 48.8829 13.1023C49.0504 13.1673 49.2034 13.2647 49.3331 13.3889C49.5825 13.6503 49.7238 13.9963 49.7288 14.3576C49.7299 14.5372 49.6954 14.7152 49.6275 14.8814C49.5596 15.0476 49.4596 15.1988 49.3331 15.3263C49.1974 15.4464 49.0459 15.5474 48.8829 15.6265C48.7179 15.6917 48.5418 15.7242 48.3644 15.722Z" fill="#F2EFEF"/>
<path d="M48.3644 21.8615C48.1861 21.8593 48.01 21.8222 47.8459 21.7523C47.6806 21.6832 47.5283 21.5863 47.3957 21.4658C47.2692 21.3383 47.1692 21.1871 47.1013 21.0209C47.0334 20.8546 46.999 20.6766 47 20.4971C47.005 20.1358 47.1464 19.7898 47.3957 19.5283C47.5283 19.4078 47.6806 19.3109 47.8459 19.2418C48.0929 19.1273 48.3685 19.0893 48.6373 19.1327L48.8829 19.2145L49.1285 19.3373C49.2 19.3877 49.2683 19.4424 49.3331 19.5011C49.5889 19.7694 49.7308 20.1264 49.7288 20.4971C49.7288 20.8589 49.5851 21.206 49.3292 21.4618C49.0733 21.7177 48.7263 21.8615 48.3644 21.8615Z" fill="#F2EFEF"/>
<path d="M48.3647 27.9998C48.1873 28.0019 48.0112 27.9695 47.8462 27.9042C47.6832 27.8251 47.5317 27.7241 47.396 27.6041C47.2755 27.4715 47.1786 27.3192 47.1095 27.1538C47.0373 26.9905 47 26.8139 47 26.6354C47 26.4568 47.0373 26.2802 47.1095 26.1169C47.1786 25.9515 47.2755 25.7993 47.396 25.6666C47.5879 25.4773 47.8315 25.3491 48.0962 25.2981C48.3609 25.2471 48.6347 25.2756 48.8832 25.3801C49.0507 25.4451 49.2037 25.5424 49.3334 25.6666C49.454 25.7993 49.5509 25.9515 49.62 26.1169C49.6921 26.2802 49.7294 26.4568 49.7294 26.6354C49.7294 26.8139 49.6921 26.9905 49.62 27.1538C49.5509 27.3192 49.454 27.4715 49.3334 27.6041C49.2059 27.7305 49.0547 27.8306 48.8885 27.8985C48.7223 27.9664 48.5443 28.0008 48.3647 27.9998Z" fill="#F2EFEF"/>
</g>
<defs>
<clipPath id="clip0_1_2">
<rect width="78" height="40" fill="white" transform="matrix(-1 0 0 -1 78 40)"/>
</clipPath>
</defs>
</svg>